<svg xmlns="http://www.w3.org/2000/svg" xmlns:xlink="http://www.w3.org/1999/xlink" style="margin: auto; background: none; display: block; shape-rendering: auto;" width="350px" height="350px" viewBox="0 0 100 100" preserveAspectRatio="xMidYMid"> 
  <path fill="none" stroke="#a1e5de" stroke-width="7" stroke-dasharray="230.93003540039064 25.658892822265614" d="M24.3 30C11.4 30 5 43.3 5 50s6.4 20 19.3 20c19.3 0 32.1-40 51.4-40 C88.6 30 95 43.3 95 50s-6.4 20-19.3 20C56.4 70 43.6 30 24.3 30z" stroke-linecap="butt" style="transform:scale(0.91);transform-origin:50px 50px">
    <animate attributeName="stroke-dashoffset" repeatCount="indefinite" dur="2.941176470588235s" keyTimes="0;1" values="0;256.58892822265625"></animate>
  </path>
  <path d="M110.0 9.2162C122.871 0.069622 136.071 -2.44963 150.327 2.36617C163.374 6.76442 170.328 16.6883 172.776 29.9805C174.946 41.7277 171.274 52.0134 164.667 61.478C155.209 75.0207 142.608 85.2369 129.116 94.4092C123.887 97.9723 118.365 101.118 112.899 104.333C112.064 104.82 110.562 105.071 109.811 104.653C92.0074 94.7154 75.3862 83.1909 62.0615 67.5047C55.58 59.8774 50.2807 51.5124 49.0845 41.2684C46.3862 18.3446 62.8126 -2.40787 88.9891 0.36191C97.3623 1.25269 104.762 4.25909 110.937 10.2023M110.882 43.0082C110.033 41.6163 109.296 40.3915 108.531 39.1806C104.219 32.4162 99.4486 26.0833 93.0923 21.0448C83.8707 13.7376 71.9646 18.9153 68.2371 27.0993C64.3982 35.5061 65.9143 43.2726 70.991 50.5242C81.1863 65.0829 95.0812 75.4661 109.992 84.6662C110.631 85.056 112.05 84.8054 112.773 84.3322C117.21 81.465 121.675 78.6117 125.903 75.4522C135.334 68.4094 144.18 60.7125 150.912 50.9139C154.987 44.9985 157.101 38.6934 155.446 31.3306C152.664 18.9849 137.99 12.986 128.532 21.4763C125.82 23.912 123.094 26.4034 120.827 29.2289C117.363 33.5575 114.317 38.2202 110.882 43.0221" fill="#FFFAED" style="transform:scale(0.30);transform-origin:23.5px 0px"/>
  <path d="M18.5607 273.909L21.1834 274.15C22.741 274.22 23.7413 274.345 24.1942 274.535C24.5177 275.818 24.3684 278.418 24.1494 279.525C23.4825 282.901 22.8356 283.893 19.7153 285.952C17.6052 287.355 15.0871 288.026 12.4844 287.941C11.713 288.006 10.867 288.016 9.95631 287.976C9.03565 287.936 8.20954 287.264 6.82607 286.934C5.44757 286.603 4.00935 285.065 2.62587 283.893C1.25234 282.716 0.471029 280.126 0.351592 278.358C0.311779 275.527 -0.121179 275.207 0.0330934 271.434C0.187366 267.662 0.301826 267.747 0.371498 265.934C0.446146 264.12 0.490935 262.953 0.515817 262.422C0.535724 261.891 0.794503 261.155 1.28718 260.208C2.03864 258.48 3.46193 257.097 4.86033 256.025C5.61179 255.559 6.55733 255.223 7.70194 255.008C9.1103 254.672 10.3047 254.527 11.29 254.572C14.4004 254.717 17.3713 255.033 19.1231 256.14C23.4825 258.936 23.2536 259.467 23.7761 263.469C23.9354 264.691 24.6271 266.34 24.1195 267.647C23.2387 267.777 21.054 267.797 19.8696 267.737C18.6852 267.682 18.9589 268.088 16.605 267.702C16.5154 267.261 16.5502 267.011 16.5104 266.094C16.4756 265.177 16.4159 264.441 16.3263 263.88C16.0725 262.207 15.4604 261.926 14.485 261.395C13.9525 261.11 13.4449 260.964 12.9522 260.959C12.4645 260.954 11.7429 261.014 10.7824 261.145C9.82194 261.275 9.14513 261.515 8.74203 261.866C8.60767 261.946 8.49321 262.142 8.40363 262.462C7.99555 263.409 7.77658 265.258 7.74175 269.631C7.70691 274.009 7.77658 275.021 7.94081 276.775C8.26926 279.885 9.52833 280.497 11.6981 281.078C11.9619 281.118 12.2107 281.143 12.4296 281.148C15.4106 281.183 16.9782 280.662 17.1375 277.12C17.1872 275.728 17.2619 274.816 17.3564 274.38C17.7545 274.425 17.7098 273.864 18.5458 273.904" fill="#FFFAED" style="transform:scale(0.30);transform-origin:15px 5px"/>
  <path d="M69.411 276.78C69.7594 274.25 69.7843 266.585 69.2269 264.08C68.6695 261.591 66.8133 260.995 63.7527 261.24C61.1699 261.445 59.876 263.71 59.8959 265.563C59.9307 268.659 59.7068 275.517 60.4831 278.568C61.0206 280.692 61.6626 281.494 66.8233 281.038C69.0428 280.842 69.1174 278.242 69.411 276.775M77.1944 267.522C77.478 269.731 77.1446 274.054 76.7564 277.551C76.2986 281.709 75.7313 282.951 74.4523 284.605C72.2676 287.435 70.6403 287.34 67.4453 287.69C64.0065 288.071 59.6371 288.487 56.9598 286.243C54.7551 284.394 53.9241 284.344 53.2473 281.193C52.8342 279.279 52.5008 269.922 52.5207 267.176C52.5356 264.847 53.2025 260.934 54.1928 258.775C55.9495 254.943 61.7671 254.492 65.4099 254.557C69.3463 254.627 74.0094 254.632 76.3235 260.133C77.2342 261.901 77.1098 263.274 77.1944 267.522Z" fill="#FFFAED" style="transform:scale(0.30);transform-origin:15px 5px"/>
  <path d="M88.2821 262.638L88.2473 265.819C88.2672 266.866 88.3916 267.622 88.6354 268.098C89.6606 268.188 90.5862 268.233 91.4223 268.233C94.4032 268.218 96.2943 267.687 97.1155 266.645C97.7375 265.884 98.0461 265.283 98.0411 264.837C98.0361 264.391 97.9366 264.05 97.7375 263.79C96.991 262.878 95.9161 262.327 94.4978 262.142C93.0845 261.961 91.8652 261.871 90.84 261.871C89.8149 261.871 88.9639 261.991 88.2771 262.212C88.2771 262.277 88.2821 262.422 88.2821 262.638ZM89.0883 281.373L91.8702 281.413C93.826 281.408 95.1199 281.268 95.7817 280.993C96.4337 280.727 96.9562 280.442 97.3394 280.156C97.8769 279.68 98.1356 279.144 98.1356 278.543C98.1257 277.947 97.9167 277.311 97.5285 276.649C96.8318 275.793 95.7817 275.267 94.3585 275.051C93.6319 274.926 92.557 274.841 91.1386 274.801C89.7203 274.761 88.8892 274.726 88.6504 274.691C88.4065 274.931 88.4364 276.82 88.4513 277.947C88.4662 279.074 88.3816 281.313 88.944 281.333L89.0933 281.378L89.0883 281.373ZM81.2851 277.766L81.1657 262.097C81.1209 259.457 81.0761 257.398 81.0164 255.92L81.0761 255.875C84.1914 255.198 86.7692 255.384 88.7051 255.384C90.646 255.384 93.4129 255.424 95.0452 255.589C96.6676 255.76 97.2648 255.684 98.8971 256.331C100.529 256.977 101.868 257.989 102.903 259.371C103.943 260.754 104.476 262.502 104.506 264.621C104.535 266.745 103.62 269.065 101.729 271.585C101.545 271.86 101.694 272.231 102.192 272.692C102.689 273.153 103.003 273.453 103.147 273.589C103.281 273.724 103.6 274.054 104.098 274.58C104.595 275.101 104.904 275.477 105.023 275.708C105.143 275.938 105.352 276.304 105.66 276.815C105.954 277.321 106.143 277.766 106.203 278.152C106.272 278.538 106.312 278.989 106.317 279.51C106.327 280.031 106.242 280.692 106.083 281.489C105.909 282.29 105.551 283.097 104.973 283.908C104.401 284.72 103.749 285.376 103.028 285.872C102.316 286.363 101.39 286.759 100.271 287.069C98.1257 287.715 95.2293 288.026 91.5915 287.991C90.6907 287.991 89.2077 287.961 87.1276 287.901L82.9522 287.72C82.2904 287.72 81.8574 287.685 81.6583 287.625C81.4742 285.566 81.3448 282.28 81.2751 277.761" fill="#FFFAED" style="transform:scale(0.30);transform-origin:15px 5px"/>
  <path d="M116.658 288.001C116.081 287.991 115.792 287.986 115.215 287.976C112.991 287.956 111.518 287.951 110.796 287.956C110.413 287.961 110.219 287.966 109.83 287.971C109.83 287.936 109.83 287.916 109.83 287.881C109.691 279.805 109.736 276.183 109.731 268.589C109.771 267.457 109.607 257.578 109.472 255.464C109.557 255.299 110.368 255.228 111.906 255.253C113.578 255.309 114.409 255.339 116.076 255.394C116.479 255.399 116.738 255.394 116.842 255.384C116.693 256.371 116.723 265.934 116.668 267.442C116.643 270.387 116.628 271.84 116.599 274.786C116.534 276.604 117.076 286.939 116.847 287.951C116.847 287.971 116.847 287.976 116.847 287.996C116.847 287.996 116.728 287.996 116.648 287.996" fill="#FFFAED" style="transform:scale(0.30);transform-origin:15px 5px"/>
  <path d="M146.403 283.257L146.518 286.663L146.647 287.5C146.104 287.64 145.502 287.71 144.821 287.715L141.242 287.64C139.112 283.803 138.033 282.586 136.614 280.612L130.244 269.416C129.781 268.644 128.831 266.51 128.721 266.53C128.478 268.784 128.816 276.414 128.935 281.884C129.005 285.141 128.911 287.049 129.005 287.705C128.93 288.111 125.561 287.981 124.626 287.966L121.774 287.771V280.657L121.824 268.213C121.376 263.675 121.844 258.765 121.874 255.649C122.496 255.534 123.252 255.474 124.133 255.474C125.014 255.474 126.348 255.304 127.557 255.389C128.766 255.474 129.811 255.474 129.821 255.584C130.269 256.326 130.682 257.037 131.215 258.099C131.752 259.161 133.409 261.275 133.753 262.026C134.101 262.778 134.519 263.013 135.932 265.483C137.848 268.268 139.272 270.718 139.351 270.703C139.57 270.493 138.948 267.402 138.913 265.238L138.451 256.611C138.301 255.805 138.416 257.608 138.351 255.76C139.605 255.609 140.949 255.544 142.377 255.559C143.795 255.579 145.039 255.674 146.1 255.855L146.328 269.942C146.607 271.505 146.08 274.275 146.577 277.491L146.398 283.247L146.403 283.257Z" fill="#FFFAED" style="transform:scale(0.30);transform-origin:15px 5px"/>
  <path d="M207.775 283.257L207.89 286.663L208.019 287.5C207.477 287.64 206.875 287.71 206.193 287.715L202.615 287.64C200.485 283.803 199.405 282.586 197.987 280.612L191.617 269.416C191.154 268.644 190.203 266.51 190.094 266.53C189.85 268.784 190.188 276.414 190.308 281.884C190.377 285.141 190.283 287.049 190.377 287.705C190.303 288.111 186.934 287.981 185.998 287.966L183.147 287.771V280.657L183.196 268.213C182.748 263.675 183.216 258.765 183.246 255.649C183.868 255.534 184.625 255.474 185.505 255.474C186.386 255.474 187.72 255.304 188.929 255.389C190.139 255.474 191.184 255.474 191.194 255.584C191.642 256.326 192.055 257.037 192.587 258.099C193.125 259.161 194.782 261.275 195.125 262.026C195.473 262.778 195.891 263.013 197.305 265.483C199.221 268.268 200.644 270.718 200.724 270.703C200.943 270.493 200.321 267.402 200.286 265.238L199.823 256.611C199.674 255.805 199.788 257.608 199.723 255.76C200.977 255.609 202.321 255.544 203.749 255.559C205.168 255.579 206.412 255.674 207.472 255.855L207.701 269.942C207.979 271.505 207.452 274.275 207.95 277.491L207.77 283.247L207.775 283.257Z" fill="#FFFAED" style="transform:scale(0.30);transform-origin:15px 5px"/>
  <path d="M160.457 278.538C161.84 278.538 167.504 278.463 168.892 278.463C167.946 272.882 165.269 264.646 164.742 264.646C164.597 264.646 164.309 264.201 164.159 264.601C164.015 265.002 161.308 273.759 160.457 278.538ZM160.372 254.788C161.004 254.723 161.432 254.708 161.661 254.738C161.88 254.768 162.467 254.783 163.418 254.783C164.358 254.783 166.125 254.698 168.698 254.532L174.396 271.194L179.616 287.67V287.715C178.492 287.871 177.183 287.956 175.695 287.956C174.202 287.961 174.665 288.081 173.057 287.796L172.147 287.71C171.878 287.109 171.823 287.74 171.241 285.812C170.654 283.883 170.186 284.184 169.688 284.184C169.544 284.089 164.966 284.109 164.398 284.099L159.581 284.144C159.158 284.119 158.576 283.753 158.153 285.697C157.964 286.228 157.829 287.159 157.391 287.911C157.058 287.976 157.337 288.001 156.998 288.001L150.444 287.745C150.399 287.745 150.354 287.73 150.31 287.7C150.349 287.61 151.215 285.752 152.036 282.29C152.863 278.839 154.336 274.846 155.913 269.606C157.496 264.376 158.521 259.251 160.377 254.788" fill="#FFFAED" style="transform:scale(0.30);transform-origin:15px 5px"/>
  <path d="M219.888 266.936L220.028 275.046C220.072 277.551 219.505 281.564 220.207 281.574C221.541 281.599 222.561 281.489 223.491 281.509C225.129 281.549 226.607 280.817 227.572 280.442C228.309 279.966 228.279 279.911 228.951 278.838C230.225 276.744 230.832 274.656 230.782 272.311C230.747 270.628 230.483 268.97 229.981 267.322C228.966 263.985 228.005 262.663 226.159 261.976C225.218 261.806 223.865 261.335 222.974 261.315C222.083 261.295 219.983 261.335 219.983 261.335L219.729 261.836C219.789 263.018 219.839 264.546 219.883 266.941M218.739 255.319L223.168 255.339C226.253 255.339 228.045 255.905 228.886 256.155C230.175 256.436 230.558 256.786 231.757 257.533C232.962 258.279 233.887 259.366 234.624 260.318C236.306 262.352 236.206 263.985 237.008 266.59C237.301 267.251 237.52 270.733 237.49 271.715C237.455 272.697 237.421 273.463 237.391 274.024C237.291 275.768 237.167 276.925 237.032 277.496C236.888 278.072 236.818 278.358 236.818 278.358C236.818 278.358 236.087 280.973 236.087 281.003C234.883 283.487 233.31 285.506 228.567 287.239C225.761 288.211 219.356 288.036 213.056 287.871L213.001 287.911C211.911 287.886 212.717 286.413 212.662 279.56L212.364 261.536C212.354 259.822 212.294 256.681 212.249 255.494L212.409 255.314C214.106 255.018 215.972 255.244 218.744 255.314" fill="#FFFAED" style="transform:scale(0.30);transform-origin:15px 5px"/>
  <path d="M44.9215 254.683C43.5231 254.673 31.9775 254.993 31.1962 254.953C31.0021 255.474 30.9474 256.987 31.0021 258.054C31.0569 259.121 30.9374 259.442 31.1166 259.777L45.6829 259.642C45.8272 258.4 45.8969 256.466 45.449 254.683H44.9215Z" fill="#FFFAED" style="transform:scale(0.30);transform-origin:15px 5px"/>
  <path d="M35.5159 277.882C36.6555 277.872 40.0993 277.787 41.2439 277.777C40.4576 275.112 38.8751 268.258 38.4371 268.329C38.1734 268.374 37.8748 268.188 37.7454 268.384C37.616 268.574 36.2176 275.587 35.5209 277.882M33.3411 262.678C33.8139 262.648 35.1526 262.568 35.3218 262.578C35.491 262.593 35.9289 262.593 36.6356 262.588C37.3423 262.583 41.3335 262.638 43.2444 262.558L46.1408 271.976L50.5152 287.355V287.375C49.6791 287.45 48.0568 287.45 46.947 287.46C45.8372 287.47 45.5187 287.545 44.0755 287.44H44.0258C43.7819 287.185 43.344 285.556 43.0653 284.695C42.7617 283.758 42.5179 283.317 42.1745 283.037C42.0401 283.002 41.7216 282.982 41.219 282.987L34.6699 282.916C34.4061 283.172 34.3663 284.154 33.9134 285.602C33.6497 286.448 33.6696 287.445 33.2715 287.771C32.9679 287.801 32.4255 287.816 32.1269 287.821L26.8965 287.851C26.8617 287.851 26.8318 287.846 26.797 287.831C26.8318 287.791 27.7475 284.7 28.071 283.012C28.5587 280.467 29.9322 275.147 30.4548 272.882C31.7088 267.447 33.2167 262.578 33.3411 262.683" fill="#FFFAED" style="transform:scale(0.30);transform-origin:15px 5px"/>
  <path d="M241.337 286.698L241.362 285.641C241.382 284.013 241.377 283.948 241.372 283.422V282.716H241.432L262.313 282.926C263.224 282.901 264.483 282.801 266.076 282.636C266.205 282.696 266.275 283.272 266.285 284.389L266.155 286.403C266.155 286.693 266.165 286.884 266.18 286.959C265.429 286.884 264.438 286.864 263.209 286.899L257.227 287.224C255.744 287.27 242.138 286.979 241.372 286.844H241.337C241.337 286.804 241.337 286.754 241.337 286.698Z" fill="#FFFAED" style="transform:scale(0.30);transform-origin:15px 5px"/>
  <path d="M258.8 263.72C256.272 260.519 252.972 259.917 249.762 262.833C247.1 265.253 248.105 269.165 249.25 270.999C250.977 273.764 254.61 274.726 257.431 272.852C260.119 271.069 261.179 267.271 258.795 263.72M259.173 255.198C264.841 257.914 268.484 264.266 266.086 271.95C264.413 277.321 259.77 282.28 250.902 280.086C243.308 278.207 239.595 271.059 241.631 263.374C243.776 255.284 251.26 252.027 259.173 255.198Z" fill="#FFFAED" style="transform:scale(0.30);transform-origin:15px 5px"/>
</svg>
